# xmcd
#
# Track frame offsets:
#	150
#	21422
#	35175
#	51960
#	68227
#	88042
#	101707
#	116135
#	139920
#	157980
#	178265
#	191705
#	208202
#	228757
#	248727
#	269667
#	304212
#
# Disc length: 4287 seconds
#
# Revision: 0
# Processed by: cddbd v1.5.2PL0 Copyright (c) Steve Scherf et al.
# Submitted via: dBpowerAMP V4.0
#
DISCID=0610bd11
DTITLE=Koos Kombuis - Greatest Hits
DYEAR=1900
DGENRE=Blues
TTITLE0=Lisa se klavier
TTITLE1=Boer in Beton
TTITLE2=Johnny is nie Dood nie
TTITLE3=Onder in my Whiskeyglas
TTITLE4=Bicycle sonder 'n Slot
TTITLE5=Travel in Staail
TTITLE6=Springbok Held
TTITLE7=Rooi Kombuis
TTITLE8=Kytie
TTITLE9=Winterkind
TTITLE10=Lalie
TTITLE11=Huisie by die See
TTITLE12=AWB-Tiete
TTITLE13=Babilon
TTITLE14=Verslaaf aan Ruk en Rol
TTITLE15=Ou Tannie Blues
TTITLE16=Almal Kaffers
EXTD=Afrikaans
EXTT0=
EXTT1=
EXTT2=
EXTT3=
EXTT4=
EXTT5=
EXTT6=
EXTT7=
EXTT8=
EXTT9=
EXTT10=
EXTT11=
EXTT12=
EXTT13=
EXTT14=
EXTT15=
EXTT16=
PLAYORDER=
